<svg width="35" height="35" viewBox="0 0 35 35" fill="none" xmlns="http://www.w3.org/2000/svg">
<g id="alternate_email">
<mask id="mask0_1_521" style="mask-type:alpha" maskUnits="userSpaceOnUse" x="0" y="0" width="35" height="35">
<rect id="Bounding box" width="35" height="35" fill="#D9D9D9"/>
</mask>
<g mask="url(#mask0_1_521)">
<path id="alternate_email_2" d="M17.5001 32.0836C15.4827 32.0836 13.5869 31.7008 11.8126 30.9352C10.0383 30.1695 8.49487 29.1305 7.18237 27.818C5.86987 26.5055 4.83081 24.9621 4.06519 23.1878C3.29956 21.4135 2.91675 19.5176 2.91675 17.5003C2.91675 15.4829 3.29956 13.5871 4.06519 11.8128C4.83081 10.0385 5.86987 8.49506 7.18237 7.18256C8.49487 5.87006 10.0383 4.83099 11.8126 4.06537C13.5869 3.29974 15.4827 2.91693 17.5001 2.91693C19.5174 2.91693 21.4133 3.29974 23.1876 4.06537C24.9619 4.83099 26.5053 5.87006 27.8178 7.18256C29.1303 8.49506 30.1694 10.0385 30.935 11.8128C31.7006 13.5871 32.0834 15.4829 32.0834 17.5003V19.6148C32.0834 21.0489 31.5912 22.2702 30.6069 23.2789C29.6225 24.2876 28.4133 24.7919 26.9792 24.7919C26.1286 24.7919 25.3265 24.6096 24.573 24.2451C23.8195 23.8805 23.1876 23.3579 22.6772 22.6774C21.9723 23.3822 21.1763 23.9109 20.2891 24.2633C19.402 24.6157 18.4723 24.7919 17.5001 24.7919C15.4827 24.7919 13.7631 24.081 12.3412 22.6591C10.9194 21.2372 10.2084 19.5176 10.2084 17.5003C10.2084 15.4829 10.9194 13.7633 12.3412 12.3414C13.7631 10.9195 15.4827 10.2086 17.5001 10.2086C19.5174 10.2086 21.2371 10.9195 22.6589 12.3414C24.0808 13.7633 24.7917 15.4829 24.7917 17.5003V19.6148C24.7917 20.2468 24.9983 20.7815 25.4115 21.219C25.8247 21.6565 26.3473 21.8753 26.9792 21.8753C27.6112 21.8753 28.1338 21.6565 28.547 21.219C28.9602 20.7815 29.1668 20.2468 29.1668 19.6148V17.5003C29.1668 14.2433 28.0365 11.4846 25.7761 9.22422C23.5157 6.96381 20.757 5.8336 17.5001 5.8336C14.2431 5.8336 11.4845 6.96381 9.22404 9.22422C6.96362 11.4846 5.83342 14.2433 5.83342 17.5003C5.83342 20.7572 6.96362 23.5159 9.22404 25.7763C11.4845 28.0367 14.2431 29.1669 17.5001 29.1669H24.7917V32.0836H17.5001ZM17.5001 21.8753C18.7154 21.8753 19.7483 21.4499 20.599 20.5992C21.4497 19.7485 21.8751 18.7155 21.8751 17.5003C21.8751 16.285 21.4497 15.252 20.599 14.4013C19.7483 13.5506 18.7154 13.1253 17.5001 13.1253C16.2848 13.1253 15.2518 13.5506 14.4011 14.4013C13.5504 15.252 13.1251 16.285 13.1251 17.5003C13.1251 18.7155 13.5504 19.7485 14.4011 20.5992C15.2518 21.4499 16.2848 21.8753 17.5001 21.8753Z" fill="#1B7019"/>
</g>
</g>
</svg>
