<svg width="46" height="46" viewBox="0 0 46 46" fill="none" xmlns="http://www.w3.org/2000/svg">
<mask id="mask0_1_457" style="mask-type:alpha" maskUnits="userSpaceOnUse" x="0" y="0" width="46" height="46">
<rect width="46" height="46" fill="#D9D9D9"/>
</mask>
<g mask="url(#mask0_1_457)">
<path d="M13.4167 26.8333C12.3626 26.8333 11.4601 26.458 10.7095 25.7073C9.95876 24.9566 9.58341 24.0542 9.58341 23C9.58341 21.9458 9.95876 21.0434 10.7095 20.2927C11.4601 19.542 12.3626 19.1667 13.4167 19.1667C14.4709 19.1667 15.3733 19.542 16.124 20.2927C16.8747 21.0434 17.2501 21.9458 17.2501 23C17.2501 24.0542 16.8747 24.9566 16.124 25.7073C15.3733 26.458 14.4709 26.8333 13.4167 26.8333ZM13.4167 34.5C10.2223 34.5 7.50702 33.3819 5.27091 31.1458C3.0348 28.9097 1.91675 26.1944 1.91675 23C1.91675 19.8056 3.0348 17.0903 5.27091 14.8542C7.50702 12.6181 10.2223 11.5 13.4167 11.5C15.557 11.5 17.4976 12.0271 19.2386 13.0812C20.9796 14.1354 22.3612 15.525 23.3834 17.25H40.2501L46.0001 23L37.3751 31.625L33.5417 28.75L29.7084 31.625L25.6355 28.75H23.3834C22.3612 30.475 20.9796 31.8646 19.2386 32.9188C17.4976 33.9729 15.557 34.5 13.4167 34.5ZM13.4167 30.6667C15.2056 30.6667 16.7789 30.1236 18.1365 29.0375C19.4942 27.9514 20.3966 26.5778 20.8438 24.9167H26.8334L29.6126 26.8813L33.5417 23.9583L36.9438 26.5938L40.5376 23L38.6209 21.0833H20.8438C20.3966 19.4222 19.4942 18.0486 18.1365 16.9625C16.7789 15.8764 15.2056 15.3333 13.4167 15.3333C11.3084 15.3333 9.50355 16.084 8.00216 17.5854C6.50077 19.0868 5.75008 20.8917 5.75008 23C5.75008 25.1083 6.50077 26.9132 8.00216 28.4146C9.50355 29.916 11.3084 30.6667 13.4167 30.6667Z" fill="#1B7019"/>
</g>
</svg>
