<svg width="63" height="63" viewBox="0 0 63 63" fill="none" xmlns="http://www.w3.org/2000/svg">
<mask id="mask0_1_460" style="mask-type:alpha" maskUnits="userSpaceOnUse" x="0" y="0" width="63" height="63">
<rect width="63" height="63" fill="#D9D9D9"/>
</mask>
<g mask="url(#mask0_1_460)">
<path d="M31.5 31.5002C28.6125 31.5002 26.1406 30.4721 24.0844 28.4158C22.0281 26.3596 21 23.8877 21 21.0002C21 18.1127 22.0281 15.6408 24.0844 13.5846C26.1406 11.5283 28.6125 10.5002 31.5 10.5002C34.3875 10.5002 36.8594 11.5283 38.9156 13.5846C40.9719 15.6408 42 18.1127 42 21.0002C42 23.8877 40.9719 26.3596 38.9156 28.4158C36.8594 30.4721 34.3875 31.5002 31.5 31.5002ZM10.5 52.5002V45.1502C10.5 43.6627 10.8828 42.2955 11.6484 41.0486C12.4141 39.8017 13.4313 38.8502 14.7 38.1939C17.4125 36.8377 20.1687 35.8205 22.9688 35.1424C25.7688 34.4642 28.6125 34.1252 31.5 34.1252C34.3875 34.1252 37.2313 34.4642 40.0312 35.1424C42.8312 35.8205 45.5875 36.8377 48.3 38.1939C49.5688 38.8502 50.5859 39.8017 51.3516 41.0486C52.1172 42.2955 52.5 43.6627 52.5 45.1502V52.5002H10.5ZM15.75 47.2502H47.25V45.1502C47.25 44.6689 47.1297 44.2314 46.8891 43.8377C46.6484 43.4439 46.3312 43.1377 45.9375 42.9189C43.575 41.7377 41.1906 40.8517 38.7844 40.2611C36.3781 39.6705 33.95 39.3752 31.5 39.3752C29.05 39.3752 26.6219 39.6705 24.2156 40.2611C21.8094 40.8517 19.425 41.7377 17.0625 42.9189C16.6687 43.1377 16.3516 43.4439 16.1109 43.8377C15.8703 44.2314 15.75 44.6689 15.75 45.1502V47.2502ZM31.5 26.2502C32.9438 26.2502 34.1797 25.7361 35.2078 24.708C36.2359 23.6799 36.75 22.4439 36.75 21.0002C36.75 19.5564 36.2359 18.3205 35.2078 17.2924C34.1797 16.2642 32.9438 15.7502 31.5 15.7502C30.0562 15.7502 28.8203 16.2642 27.7922 17.2924C26.7641 18.3205 26.25 19.5564 26.25 21.0002C26.25 22.4439 26.7641 23.6799 27.7922 24.708C28.8203 25.7361 30.0562 26.2502 31.5 26.2502Z" fill="#1B7019"/>
</g>
</svg>
